<?xml version="1.0" encoding="utf-8"?>
<!-- Generator: Adobe Illustrator 23.0.3, SVG Export Plug-In . SVG Version: 6.00 Build 0)  -->
<svg version="1.1" id="Слой_1" xmlns="http://www.w3.org/2000/svg" xmlns:xlink="http://www.w3.org/1999/xlink" x="0px" y="0px"
	 viewBox="0 0 96.5 97" style="enable-background:new 0 0 96.5 97;" xml:space="preserve">
<title>favicon</title>
<path d="M84.1,97H12.4c-7,0-12.7-5.7-12.7-12.7V12.7C-0.3,5.7,5.4,0,12.4,0h71.7c7,0,12.7,5.7,12.7,12.7v71.7
	C96.8,91.3,91.1,97,84.1,97z M12.4,6.6c-3.4,0-6.1,2.7-6.1,6.1v71.7c0,3.4,2.7,6.1,6.1,6.1h71.7c3.4,0,6.1-2.7,6.1-6.1V12.7
	c0-3.4-2.7-6.1-6.1-6.1H12.4z"/>
<path d="M83.5,30.9c0,0.9-0.7,1.7-1.7,1.7H41.1c-0.9,0-1.7-0.7-1.7-1.7v-4.4c0-0.9,0.7-1.7,1.7-1.7h40.8c0.9,0,1.7,0.7,1.7,1.7
	C83.5,26.4,83.5,30.9,83.5,30.9z M83.5,52.9c0,0.9-0.7,1.7-1.7,1.7H41.1c-0.9,0-1.7-0.7-1.7-1.7v-4.4c0-0.9,0.7-1.7,1.7-1.7h40.8
	c0.9,0,1.7,0.7,1.7,1.7V52.9z M83.5,75c0,0.9-0.7,1.7-1.7,1.7H41.1c-0.9,0-1.7-0.7-1.7-1.7v-4.4c0-0.9,0.7-1.7,1.7-1.7h40.8
	c0.9,0,1.7,0.7,1.7,1.7V75z M35.3,22.1L22.6,34.8c-0.6,0.6-1.7,0.6-2.3,0l-1.7-1.7l-5.1-5.2c-0.6-0.6-0.6-1.7,0-2.3l1.7-1.7
	c0.6-0.6,1.7-0.6,2.3,0l4,4l9.8-9.8c0.6-0.6,1.7-0.6,2.3,0l1.7,1.7C36,20.5,36,21.5,35.3,22.1L35.3,22.1L35.3,22.1z M35.3,44.2
	L22.6,56.9c-0.6,0.6-1.7,0.6-2.3,0l-1.7-1.7L13.4,50c-0.6-0.6-0.6-1.7,0-2.3l1.7-1.7c0.6-0.6,1.7-0.6,2.3,0l4,4l9.8-9.8
	c0.6-0.6,1.7-0.6,2.3,0l1.7,1.7C36,42.5,36,43.5,35.3,44.2L35.3,44.2L35.3,44.2z M21.8,66.2c3.7,0,6.6,3,6.6,6.6s-3,6.6-6.6,6.6
	s-6.6-3-6.6-6.6S18.1,66.2,21.8,66.2z"/>
</svg>
