<?xml version="1.0" encoding="utf-8"?>
<!-- Generator: Adobe Illustrator 23.0.3, SVG Export Plug-In . SVG Version: 6.00 Build 0)  -->
<svg version="1.1" id="Слой_1" xmlns="http://www.w3.org/2000/svg" xmlns:xlink="http://www.w3.org/1999/xlink" x="0px" y="0px"
	 viewBox="0 0 342.9 97" style="enable-background:new 0 0 342.9 97;" xml:space="preserve">
<title>logo-test</title>
<g>
	<g id="Слой_1-2">
		<path d="M84.3,97H12.7C5.7,97,0,91.3,0,84.3V12.7C0,5.7,5.7,0,12.7,0h71.7C91.3,0,97,5.7,97,12.7v71.7C97,91.3,91.3,97,84.3,97z
			 M12.7,6.6c-3.4,0-6.1,2.7-6.1,6.1v71.7c0,3.4,2.7,6.1,6.1,6.1h71.7c3.4,0,6.1-2.7,6.1-6.1V12.7c0-3.4-2.7-6.1-6.1-6.1H12.7z
			 M83.8,30.9c0,0.9-0.7,1.7-1.7,1.7H41.3c-0.9,0-1.7-0.7-1.7-1.7v-4.4c0-0.9,0.7-1.7,1.7-1.7h40.8c0.9,0,1.7,0.7,1.7,1.7
			C83.8,26.4,83.8,30.9,83.8,30.9z M83.8,52.9c0,0.9-0.7,1.7-1.7,1.7H41.3c-0.9,0-1.7-0.7-1.7-1.7v-4.4c0-0.9,0.7-1.7,1.7-1.7h40.8
			c0.9,0,1.7,0.7,1.7,1.7V52.9z M83.8,75c0,0.9-0.7,1.7-1.7,1.7H41.3c-0.9,0-1.7-0.7-1.7-1.7v-4.4c0-0.9,0.7-1.7,1.7-1.7h40.8
			c0.9,0,1.7,0.7,1.7,1.7V75z M35.6,22.1L22.9,34.8c-0.6,0.6-1.7,0.6-2.3,0l-1.7-1.7l-5.1-5.2c-0.6-0.6-0.6-1.7,0-2.3l1.7-1.7
			c0.6-0.6,1.7-0.6,2.3,0l4,4l9.8-9.8c0.6-0.6,1.7-0.6,2.3,0l1.7,1.7C36.2,20.5,36.2,21.5,35.6,22.1L35.6,22.1L35.6,22.1z
			 M35.6,44.2L22.9,56.9c-0.6,0.6-1.7,0.6-2.3,0l-1.7-1.7L13.7,50c-0.6-0.6-0.6-1.7,0-2.3l1.7-1.7c0.6-0.6,1.7-0.6,2.3,0l4,4
			l9.8-9.8c0.6-0.6,1.7-0.6,2.3,0l1.7,1.7C36.2,42.5,36.2,43.5,35.6,44.2L35.6,44.2L35.6,44.2z M22,66.2c3.7,0,6.6,3,6.6,6.6
			s-3,6.6-6.6,6.6s-6.6-3-6.6-6.6S18.4,66.2,22,66.2z"/>
		<g>
			<path d="M137.6,10.2h-9.3V1.9h29.2v8.3h-9.3v23.4h-10.7V10.2z"/>
			<path d="M179.9,11.3c2.3,1.9,3.4,4.9,3.4,9v13.3h-9.5v-3.3c-1.2,2.5-3.5,3.7-7,3.7c-2,0-3.6-0.3-5-1c-1.4-0.7-2.4-1.6-3.1-2.8
				c-0.7-1.2-1.1-2.5-1.1-3.9c0-2.4,0.9-4.3,2.8-5.6c1.9-1.3,4.7-1.9,8.5-1.9h4.1c-0.3-1.9-1.9-2.9-4.7-2.9c-1.1,0-2.2,0.2-3.4,0.5
				c-1.1,0.3-2.1,0.8-2.9,1.4l-3.3-6.7c1.4-0.9,3.1-1.6,5.1-2.1c2-0.5,4-0.7,6-0.7C174.3,8.4,177.6,9.3,179.9,11.3z M171.8,27.3
				c0.6-0.4,1-1,1.3-1.8v-1.7h-2.5c-2.1,0-3.1,0.7-3.1,2.1c0,0.6,0.2,1,0.7,1.4c0.4,0.4,1,0.6,1.8,0.6
				C170.6,27.8,171.3,27.6,171.8,27.3z"/>
			<path d="M191.2,33.3c-2-0.5-3.7-1-5-1.8l2.8-6.7c1.1,0.7,2.5,1.2,4.1,1.6c1.6,0.4,3.1,0.6,4.6,0.6c1.2,0,2-0.1,2.5-0.3
				c0.5-0.2,0.7-0.5,0.7-0.9c0-0.4-0.3-0.7-0.9-0.8c-0.6-0.2-1.5-0.3-2.9-0.5c-2-0.2-3.7-0.5-5.2-0.9c-1.4-0.4-2.7-1.1-3.7-2.2
				c-1.1-1.1-1.6-2.6-1.6-4.7c0-1.6,0.5-3,1.4-4.3c1-1.3,2.4-2.3,4.3-3c1.9-0.8,4.2-1.1,6.9-1.1c1.9,0,3.7,0.2,5.5,0.5
				c1.8,0.3,3.3,0.9,4.6,1.5l-2.8,6.7c-2.2-1.2-4.6-1.8-7.1-1.8c-2.2,0-3.3,0.4-3.3,1.2c0,0.4,0.3,0.7,0.9,0.8
				c0.6,0.2,1.6,0.3,2.8,0.5c2,0.2,3.7,0.6,5.1,0.9c1.4,0.4,2.6,1.1,3.7,2.2c1.1,1.1,1.6,2.6,1.6,4.7c0,1.5-0.5,2.9-1.4,4.2
				c-1,1.3-2.4,2.3-4.3,3c-1.9,0.8-4.3,1.1-7,1.1C195.3,34,193.2,33.8,191.2,33.3z"/>
			<path d="M225.1,25.9l-1.6,1.8v5.8h-10.2V0h10.2v16l7.1-7.2h12.1l-10.2,10.7l11,14h-12.3L225.1,25.9z"/>
			<path d="M159,87.8l-0.1-14.4L152,84.9h-4.7l-6.9-11.1v13.9h-9.7V56.1h8.8L149.8,73l10-16.9h8.8l0.1,31.6H159z"/>
			<path d="M194.6,65.5c2.3,1.9,3.4,4.9,3.4,9v13.3h-9.5v-3.3c-1.2,2.5-3.5,3.7-7,3.7c-2,0-3.6-0.3-5-1c-1.4-0.7-2.4-1.6-3.1-2.8
				c-0.7-1.2-1.1-2.5-1.1-3.9c0-2.4,0.9-4.3,2.8-5.6c1.9-1.3,4.7-1.9,8.5-1.9h4.1c-0.3-1.9-1.9-2.9-4.7-2.9c-1.1,0-2.2,0.2-3.4,0.5
				c-1.1,0.3-2.1,0.8-2.9,1.4l-3.3-6.7c1.4-0.9,3.1-1.6,5.1-2.1c2-0.5,4-0.7,6-0.7C189,62.6,192.3,63.6,194.6,65.5z M186.5,81.5
				c0.6-0.4,1-1,1.3-1.8V78h-2.5c-2.1,0-3.1,0.7-3.1,2.1c0,0.6,0.2,1,0.7,1.4c0.4,0.4,1,0.6,1.8,0.6C185.3,82.1,186,81.9,186.5,81.5
				z"/>
			<path d="M227,65.4c1.9,1.8,2.8,4.6,2.8,8.3v14.1h-10.2V75.4c0-2.8-1-4.2-3-4.2c-1.1,0-2.1,0.4-2.8,1.2c-0.7,0.8-1.1,2.1-1.1,3.8
				v11.6h-10.2V63.1h9.7v2.4c1-1,2.1-1.7,3.3-2.2c1.3-0.5,2.6-0.7,4.1-0.7C222.7,62.6,225.1,63.5,227,65.4z"/>
			<path d="M255.2,65.5c2.3,1.9,3.4,4.9,3.4,9v13.3h-9.5v-3.3c-1.2,2.5-3.5,3.7-7,3.7c-2,0-3.6-0.3-5-1c-1.4-0.7-2.4-1.6-3.1-2.8
				c-0.7-1.2-1.1-2.5-1.1-3.9c0-2.4,0.9-4.3,2.8-5.6c1.9-1.3,4.7-1.9,8.5-1.9h4.1c-0.3-1.9-1.9-2.9-4.7-2.9c-1.1,0-2.2,0.2-3.4,0.5
				c-1.1,0.3-2.1,0.8-2.9,1.4l-3.3-6.7c1.4-0.9,3.1-1.6,5.1-2.1c2-0.5,4-0.7,6-0.7C249.6,62.6,252.9,63.6,255.2,65.5z M247.1,81.5
				c0.6-0.4,1-1,1.3-1.8V78h-2.5c-2.1,0-3.1,0.7-3.1,2.1c0,0.6,0.2,1,0.7,1.4c0.4,0.4,1,0.6,1.8,0.6
				C245.9,82.1,246.6,81.9,247.1,81.5z"/>
			<path d="M291.1,63.1v19.8c0,4.7-1.3,8.2-3.9,10.6c-2.6,2.4-6.3,3.5-11.1,3.5c-2.5,0-4.8-0.3-6.9-0.8c-2.1-0.5-4-1.3-5.5-2.3
				l3.4-7c1,0.7,2.2,1.3,3.7,1.8c1.5,0.5,2.9,0.7,4.2,0.7c2,0,3.5-0.4,4.5-1.3c0.9-0.9,1.4-2.2,1.4-3.8v-0.5
				c-1.5,1.7-3.8,2.6-6.8,2.6c-2.1,0-4.1-0.5-5.9-1.5c-1.8-1-3.3-2.4-4.4-4.2c-1.1-1.8-1.6-3.9-1.6-6.3c0-2.4,0.5-4.4,1.6-6.2
				c1.1-1.8,2.5-3.2,4.4-4.2c1.8-1,3.8-1.5,5.9-1.5c3.4,0,5.8,1.1,7.3,3.3v-2.8H291.1z M279.8,77.4c0.8-0.7,1.2-1.7,1.2-2.9
				c0-1.2-0.4-2.1-1.2-2.8c-0.8-0.7-1.8-1.1-3-1.1c-1.2,0-2.3,0.4-3.1,1.1c-0.8,0.7-1.2,1.7-1.2,2.8c0,1.2,0.4,2.1,1.2,2.9
				c0.8,0.7,1.8,1.1,3,1.1C278,78.5,279,78.1,279.8,77.4z"/>
			<path d="M321.8,77.8h-17.2c0.4,0.9,1,1.7,1.8,2.1c0.8,0.5,1.9,0.7,3.2,0.7c1.1,0,2-0.1,2.7-0.4c0.7-0.3,1.5-0.7,2.4-1.4l5.3,5.4
				c-2.4,2.7-6,4-10.8,4c-3,0-5.6-0.5-7.9-1.6c-2.3-1.1-4-2.6-5.2-4.6c-1.2-2-1.9-4.2-1.9-6.6c0-2.5,0.6-4.7,1.8-6.6
				c1.2-1.9,2.9-3.5,5-4.5c2.1-1.1,4.5-1.6,7.2-1.6c2.5,0,4.8,0.5,6.8,1.5c2.1,1,3.7,2.5,4.9,4.4c1.2,1.9,1.8,4.2,1.8,6.9
				C322,75.5,321.9,76.3,321.8,77.8z M305.8,70.4c-0.7,0.6-1.1,1.4-1.4,2.4h8c-0.2-1-0.7-1.8-1.4-2.4c-0.7-0.6-1.6-0.9-2.6-0.9
				C307.4,69.6,306.5,69.9,305.8,70.4z"/>
			<path d="M342.9,62.6v9c-0.8-0.1-1.6-0.2-2.3-0.2c-3.5,0-5.2,1.8-5.2,5.3v11h-10.2V63.1h9.7v2.7C336.7,63.6,339.4,62.6,342.9,62.6
				z"/>
		</g>
	</g>
</g>
</svg>
